<?xml version="1.0" standalone="no"?>
<!DOCTYPE svg PUBLIC "-//W3C//DTD SVG 20010904//EN"
 "http://www.w3.org/TR/2001/REC-SVG-20010904/DTD/svg10.dtd">
<svg version="1.0" xmlns="http://www.w3.org/2000/svg"
 width="1024.000000pt" height="683.000000pt" viewBox="0 0 1024.000000 683.000000"
 preserveAspectRatio="xMidYMid meet">

<g transform="translate(0.000000,683.000000) scale(0.100000,-0.100000)"
fill="#000000" stroke="none">
<path d="M5470 4771 c0 -1353 2 -1509 15 -1515 9 -3 229 -6 489 -6 l473 1 23
24 c27 29 82 48 208 71 l92 17 -1 51 c-1 28 -4 77 -8 109 -5 51 -10 60 -38 78
l-33 21 0 -111 0 -111 -540 0 -540 0 0 1370 0 1370 533 0 534 0 6 -202 c4
-112 7 -610 7 -1108 0 -899 0 -905 20 -875 10 17 40 43 65 59 l45 29 0 1118 0
1119 -675 0 -675 0 0 -1509z"/>
<path d="M1890 4715 l0 -1515 388 0 387 0 125 96 c69 52 138 103 153 112 23
14 27 23 25 51 -2 28 -10 38 -42 56 -74 41 -96 96 -101 245 -2 58 0 129 5 158
15 91 90 165 160 160 29 -3 40 -11 68 -52 43 -65 42 -86 -2 -86 -19 0 -38 -5
-42 -11 -4 -8 7 -10 38 -8 l45 4 17 -48 c18 -50 70 -117 91 -117 7 0 15 9 18
20 7 26 48 27 70 2 34 -38 16 -101 -33 -117 -18 -6 -20 -15 -20 -104 l0 -98
45 -29 c53 -33 85 -90 111 -199 16 -67 34 -106 34 -74 0 18 -58 589 -66 650
l-6 47 48 -18 c72 -25 84 -31 84 -42 0 -5 -4 -6 -10 -3 -6 4 -10 -7 -10 -27 0
-26 3 -30 11 -18 9 12 10 11 4 -5 -4 -11 -9 -120 -12 -242 l-6 -223 47 0 c45
0 46 1 47 33 l1 32 9 -32 c9 -32 29 -46 29 -20 0 7 -7 93 -16 191 -15 172 -15
180 3 190 18 11 84 16 78 5 -2 -3 16 -11 40 -18 24 -7 49 -19 54 -25 6 -7 26
-12 45 -11 19 0 33 -2 30 -6 -6 -10 45 -21 58 -13 7 4 8 3 4 -4 -10 -16 7 -15
23 1 10 8 12 8 7 0 -8 -15 8 -25 47 -29 17 -2 38 -11 47 -19 9 -8 26 -13 38
-10 12 2 21 -1 19 -7 -1 -6 9 -15 23 -19 18 -5 11 -7 -25 -6 l-49 2 -23 -57
c-27 -68 -37 -154 -58 -528 -30 -554 -29 -510 -11 -510 21 0 21 -18 -1 -247
-16 -170 -16 -196 0 -405 9 -123 24 -362 32 -533 9 -170 20 -318 26 -327 18
-33 11 -76 -13 -84 -34 -10 -188 -86 -193 -94 -5 -7 750 -3 771 4 7 3 13 50
17 118 4 62 14 192 22 288 18 196 21 474 5 565 -5 33 -23 249 -40 480 -16 231
-31 436 -33 455 -3 28 3 43 30 74 66 78 90 199 62 314 -7 26 -13 48 -14 50 -2
2 -42 -2 -90 -9 -47 -6 -88 -9 -91 -6 -4 4 19 170 31 225 4 17 12 22 35 22 30
0 30 0 30 59 l0 58 -142 29 c-135 26 -141 29 -108 39 19 5 45 16 57 23 43 24
168 206 205 297 63 156 91 221 100 226 12 7 -52 33 -184 74 -49 15 -88 29 -88
31 0 3 16 31 36 62 83 130 186 176 254 115 40 -36 50 -83 39 -180 -10 -90 -5
-106 10 -33 22 101 12 163 -33 217 -26 31 -32 45 -29 77 2 22 5 42 7 44 2 2
23 5 47 7 33 3 49 11 66 31 12 15 36 32 54 38 19 6 40 23 49 38 14 26 13 31
-8 71 -13 25 -20 51 -16 60 7 20 -20 67 -39 67 -7 0 -21 6 -30 13 -15 10 -16
17 -6 44 8 24 8 41 -1 67 -12 37 -61 86 -86 86 -15 0 -94 74 -94 88 0 20 -51
54 -87 59 -48 6 -94 -15 -140 -63 -25 -27 -40 -34 -68 -34 -21 0 -50 -8 -66
-17 -29 -18 -59 -76 -59 -117 0 -52 -21 -86 -70 -111 -26 -13 -50 -31 -54 -40
-12 -32 -6 -92 10 -106 12 -10 15 -24 10 -61 -6 -43 -4 -51 19 -74 20 -20 32
-24 55 -19 23 5 33 2 47 -16 52 -64 85 -74 144 -44 35 19 49 13 49 -21 0 -13
6 -24 13 -24 7 0 8 -3 2 -8 -15 -11 -19 -98 -4 -107 8 -5 10 -4 5 4 -8 12 27
64 37 55 2 -3 22 6 42 21 21 14 45 25 54 25 9 -1 0 -9 -19 -20 -44 -23 -88
-70 -128 -138 -37 -61 -37 -61 -16 -77 16 -11 15 -16 -1 -61 -11 -27 -25 -59
-32 -70 -8 -12 -13 -26 -11 -30 1 -5 -7 -30 -19 -56 -12 -25 -24 -57 -28 -70
-4 -12 -11 -27 -15 -33 -4 -5 -10 -22 -14 -37 -8 -33 -17 -34 -135 -12 -47 9
-108 14 -134 11 -27 -2 -44 -1 -37 3 11 7 -127 30 -210 35 -25 2 -50 4 -57 4
-6 1 -20 15 -30 31 -9 17 -26 33 -38 36 -11 4 -31 15 -45 26 -16 13 -33 17
-50 13 -19 -4 -21 -3 -10 5 12 8 10 10 -11 10 -27 0 -132 72 -201 138 -46 43
-48 71 -12 135 24 43 36 52 173 121 l148 75 11 -24 c7 -15 8 -25 2 -25 -17 0
-11 -38 8 -50 15 -9 14 -10 -5 -5 -31 9 -29 -1 5 -20 15 -9 19 -14 10 -11 -10
3 -18 1 -18 -4 0 -6 5 -10 10 -10 6 0 10 -6 10 -14 0 -19 66 -29 108 -17 21 6
30 6 26 0 -7 -12 25 -63 34 -54 4 3 0 10 -8 15 -8 6 -10 10 -4 10 6 0 17 -7
24 -15 9 -10 9 -15 1 -15 -16 0 -13 -12 10 -40 11 -14 17 -19 13 -11 -5 9 -3
12 5 7 6 -4 9 -12 6 -17 -4 -5 4 -22 16 -37 20 -25 21 -25 16 -4 -3 13 -1 20
5 16 5 -4 8 -17 5 -30 -3 -18 13 -49 59 -116 51 -73 64 -87 64 -66 0 16 16 43
45 74 24 27 45 54 45 61 0 7 7 10 15 7 10 -4 44 25 102 86 49 51 90 97 92 104
6 20 -103 -88 -156 -153 l-19 -23 -40 36 c-21 20 -45 36 -52 36 -7 0 -11 4 -8
8 3 5 -20 32 -50 61 -30 29 -54 48 -54 42 0 -5 7 -14 16 -19 10 -6 12 -12 6
-16 -5 -3 -17 9 -26 27 -22 45 -154 173 -198 192 -59 24 -65 47 -26 96 l32 40
-18 34 c-10 19 -28 43 -40 54 -21 20 -23 20 -75 3 -44 -14 -79 -39 -194 -144
-78 -71 -145 -128 -149 -128 -4 0 -8 425 -8 945 l0 945 -675 0 -675 0 0 -1515z
m1218 409 l2 -961 -47 -7 c-98 -13 -223 -90 -259 -159 -24 -45 -43 -163 -54
-339 -6 -90 -13 -196 -16 -235 l-6 -73 -349 0 -349 0 0 1370 0 1370 538 -2
537 -3 3 -961z m1285 -221 c-3 -10 -10 -23 -15 -30 -6 -7 -6 -18 -2 -25 5 -10
4 -10 -5 -2 -10 9 -9 18 3 43 18 34 29 42 19 14z m125 -53 c12 -19 11 -20 -8
-8 -11 7 -20 16 -20 20 0 15 15 8 28 -12z m-78 6 c0 -2 -8 -10 -17 -17 -16
-13 -17 -12 -4 4 13 16 21 21 21 13z m-170 -21 c0 -8 -4 -15 -10 -15 -5 0 -7
7 -4 15 4 8 8 15 10 15 2 0 4 -7 4 -15z m85 -3 c-3 -3 -11 0 -18 7 -9 10 -8
11 6 5 10 -3 15 -9 12 -12z m-49 -39 c-15 -8 -30 -12 -33 -10 -2 3 5 8 16 12
12 3 21 11 21 16 0 6 5 7 11 3 8 -4 2 -12 -15 -21z m54 23 c0 -3 -4 -8 -10
-11 -5 -3 -10 -1 -10 4 0 6 5 11 10 11 6 0 10 -2 10 -4z m-83 -12 c-3 -3 -12
-4 -19 -1 -8 3 -5 6 6 6 11 1 17 -2 13 -5z m213 -4 c-8 -5 -19 -10 -25 -10 -5
0 -3 5 5 10 8 5 20 10 25 10 6 0 3 -5 -5 -10z m-119 -27 c-12 -20 -14 -14 -5
12 4 9 9 14 11 11 3 -2 0 -13 -6 -23z m-21 7 c0 -5 -2 -10 -4 -10 -3 0 -8 5
-11 10 -3 6 -1 10 4 10 6 0 11 -4 11 -10z m-93 -22 c-3 -8 -6 -5 -6 6 -1 11 2
17 5 13 3 -3 4 -12 1 -19z m58 -6 c-3 -3 1 -12 8 -20 11 -13 9 -14 -10 -1 -27
16 -29 26 -8 26 8 0 13 -3 10 -5z m167 1 c-6 -2 -9 -10 -6 -15 4 -7 2 -8 -4
-4 -18 11 -14 26 6 25 10 0 12 -3 4 -6z m-225 -55 c-3 -8 -6 -5 -6 6 -1 11 2
17 5 13 3 -3 4 -12 1 -19z m322 8 c9 -10 8 -15 -2 -19 -8 -3 -13 3 -14 14 -2
23 1 24 16 5z m96 -6 c3 -6 -1 -7 -10 -4 -8 4 -22 1 -30 -6 -13 -11 -14 -10
-9 4 7 18 39 22 49 6z m-352 -14 c4 -10 0 -12 -15 -8 -15 4 -17 7 -6 13 17 11
15 11 21 -5z m147 -6 c-6 -11 -13 -20 -16 -20 -2 0 0 9 6 20 6 11 13 20 16 20
2 0 0 -9 -6 -20z m-86 -25 c-4 -8 -11 -12 -17 -8 -8 5 -7 8 1 11 7 2 9 9 6 14
-4 7 -2 8 4 4 6 -4 9 -13 6 -21z m298 -27 c-8 -8 -9 -4 -5 13 4 13 8 18 11 10
2 -7 -1 -18 -6 -23z m-63 -7 c-13 -11 -26 -18 -28 -16 -6 7 24 34 38 35 7 0 3
-8 -10 -19z m-174 -1 c3 -6 -1 -7 -9 -4 -18 7 -21 14 -7 14 6 0 13 -4 16 -10z
m23 -45 c-3 -3 -9 2 -12 12 -6 14 -5 15 5 6 7 -7 10 -15 7 -18z m-199 -35 c0
-9 -4 -8 -9 5 -5 11 -9 27 -9 35 0 9 4 8 9 -5 5 -11 9 -27 9 -35z m62 -81 c24
-18 24 -18 1 -12 -12 3 -29 15 -37 26 -19 26 -20 48 -2 23 7 -10 24 -26 38
-37z m-581 -103 c7 -9 6 -13 -5 -13 -8 0 -12 4 -9 9 3 4 -2 8 -10 8 -8 0 -17
4 -20 9 -9 13 32 1 44 -13z m815 14 c-3 -5 -10 -10 -16 -10 -5 0 -9 5 -9 10 0
6 7 10 16 10 8 0 12 -4 9 -10z m-781 -59 c-5 -3 -12 -10 -15 -14 -4 -4 -9 -1
-13 8 -3 9 -2 13 4 10 6 -3 10 -1 10 5 0 6 5 8 11 4 6 -3 7 -9 3 -13z m-114
-5 c0 -3 -4 -8 -10 -11 -5 -3 -10 -1 -10 4 0 6 5 11 10 11 6 0 10 -2 10 -4z
m190 -61 c7 -9 8 -15 2 -15 -5 0 -12 7 -16 15 -3 8 -4 15 -2 15 2 0 9 -7 16
-15z m616 -173 c-10 -2 -22 0 -28 6 -6 6 0 7 19 4 21 -5 23 -7 9 -10z m-431
-2 c3 -5 1 -10 -4 -10 -6 0 -11 5 -11 10 0 6 2 10 4 10 3 0 8 -4 11 -10z
m-500 -220 c-3 -5 -12 -10 -18 -10 -7 0 -6 4 3 10 19 12 23 12 15 0z m362
-116 c-3 -3 -12 -4 -19 -1 -8 3 -5 6 6 6 11 1 17 -2 13 -5z m-323 -45 c-6 -11
-41 -12 -47 -1 -3 4 8 7 24 8 15 1 26 -3 23 -7z m176 -29 c18 -12 2 -12 -25 0
-13 6 -15 9 -5 9 8 0 22 -4 30 -9z m513 -127 c-7 -2 -19 -2 -25 0 -7 3 -2 5
12 5 14 0 19 -2 13 -5z m-46 -39 c-3 -3 -12 -4 -19 -1 -8 3 -5 6 6 6 11 1 17
-2 13 -5z m97 -2510 l6 -150 -38 -17 c-21 -9 -42 -17 -45 -17 -10 0 -8 96 3
165 5 33 16 121 25 195 26 234 28 241 36 100 3 -69 9 -193 13 -276z m-156
-147 c2 -12 -3 -17 -17 -17 -12 0 -21 6 -21 13 0 31 32 34 38 4z m330 0 c2
-12 -3 -17 -17 -17 -12 0 -21 6 -21 13 0 31 32 34 38 4z"/>
<path d="M2699 4983 c-13 -16 -12 -17 4 -4 16 13 21 21 13 21 -2 0 -10 -8 -17
-17z"/>
<path d="M2589 4823 c-13 -16 -12 -17 4 -4 16 13 21 21 13 21 -2 0 -10 -8 -17
-17z"/>
<path d="M2709 4753 c-13 -16 -12 -17 4 -4 9 7 17 15 17 17 0 8 -8 3 -21 -13z"/>
<path d="M2659 4683 c-13 -16 -12 -17 4 -4 16 13 21 21 13 21 -2 0 -10 -8 -17
-17z"/>
<path d="M7550 5780 c0 -38 4 -50 15 -50 10 0 15 10 15 30 0 28 3 30 35 30 19
0 35 5 35 10 0 6 -14 10 -31 10 -17 0 -39 5 -50 10 -18 10 -19 7 -19 -40z"/>
<path d="M7827 5823 c-4 -3 -7 -26 -7 -50 0 -32 4 -43 15 -43 10 0 15 10 15
30 0 28 3 30 35 30 19 0 35 5 35 10 0 6 -15 10 -33 10 -18 0 -38 5 -43 10 -6
6 -13 7 -17 3z"/>
<path d="M8097 5823 c-4 -3 -7 -26 -7 -50 0 -49 26 -63 32 -15 2 22 8 27 32
27 16 1 31 6 34 13 2 8 -8 12 -30 12 -19 0 -39 5 -44 10 -6 6 -13 7 -17 3z"/>
<path d="M8367 5823 c-4 -3 -7 -26 -7 -50 0 -49 26 -63 32 -15 2 22 8 27 32
27 16 1 31 6 34 13 2 8 -8 12 -30 12 -19 0 -39 5 -44 10 -6 6 -13 7 -17 3z"/>
<path d="M7543 5693 c15 -2 37 -2 50 0 12 2 0 4 -28 4 -27 0 -38 -2 -22 -4z"/>
<path d="M7813 5693 c15 -2 37 -2 50 0 12 2 0 4 -28 4 -27 0 -38 -2 -22 -4z"/>
<path d="M8083 5693 c15 -2 37 -2 50 0 12 2 0 4 -28 4 -27 0 -38 -2 -22 -4z"/>
<path d="M8353 5693 c15 -2 37 -2 50 0 12 2 0 4 -28 4 -27 0 -38 -2 -22 -4z"/>
<path d="M7200 5325 l0 -45 765 0 765 0 0 45 0 45 -765 0 -765 0 0 -45z"/>
<path d="M6249 4993 c-13 -16 -12 -17 4 -4 16 13 21 21 13 21 -2 0 -10 -8 -17
-17z"/>
<path d="M7435 4980 c3 -6 52 -10 111 -10 68 0 103 4 99 10 -3 6 -52 10 -111
10 -68 0 -103 -4 -99 -10z"/>
<path d="M7725 4980 c-4 -6 33 -10 105 -10 72 0 109 4 105 10 -3 6 -50 10
-105 10 -55 0 -102 -4 -105 -10z"/>
<path d="M8020 4980 c0 -6 44 -10 111 -10 71 0 108 4 104 10 -3 6 -52 10 -111
10 -63 0 -104 -4 -104 -10z"/>
<path d="M8325 4980 c-4 -6 33 -10 105 -10 72 0 109 4 105 10 -3 6 -50 10
-105 10 -55 0 -102 -4 -105 -10z"/>
<path d="M7323 4862 l-123 -3 0 -44 0 -45 765 0 765 0 0 45 0 45 -97 1 c-334
3 -1208 4 -1310 1z"/>
<path d="M6259 4763 c-13 -16 -12 -17 4 -4 9 7 17 15 17 17 0 8 -8 3 -21 -13z"/>
<path d="M7400 4518 c0 -12 -3 -33 -6 -45 -5 -19 -2 -23 18 -23 23 0 24 3 19
42 -6 45 -31 66 -31 26z"/>
<path d="M7537 4533 c-4 -3 -7 -26 -7 -50 0 -37 3 -43 21 -43 19 0 21 4 15 38
-3 20 -6 43 -6 50 0 13 -13 16 -23 5z"/>
<path d="M7686 4524 c-3 -9 -6 -29 -6 -45 0 -22 5 -29 20 -29 21 0 24 9 14 59
-7 34 -18 40 -28 15z"/>
<path d="M7820 4521 c0 -10 -3 -33 -6 -50 -6 -29 -4 -31 20 -31 26 0 27 2 21
38 -4 20 -8 43 -10 50 -7 19 -25 14 -25 -7z"/>
<path d="M7960 4495 c0 -39 3 -45 21 -45 19 0 21 4 15 31 -3 17 -6 38 -6 45 0
8 -7 14 -15 14 -11 0 -15 -12 -15 -45z"/>
<path d="M8100 4528 c0 -7 -3 -30 -6 -50 -6 -34 -4 -38 15 -38 17 0 21 6 21
34 0 19 -3 41 -6 50 -7 19 -24 21 -24 4z"/>
<path d="M8250 4526 c0 -7 -3 -28 -6 -45 -6 -27 -4 -31 15 -31 17 0 21 6 21
29 0 35 -9 61 -21 61 -5 0 -9 -6 -9 -14z"/>
<path d="M8380 4490 c0 -44 2 -50 21 -50 19 0 21 4 15 38 -3 20 -6 43 -6 50 0
6 -7 12 -15 12 -11 0 -15 -12 -15 -50z"/>
<path d="M8540 4518 c0 -12 -3 -33 -6 -45 -5 -19 -2 -23 18 -23 23 0 24 3 19
42 -6 45 -31 66 -31 26z"/>
<path d="M7537 4414 c-13 -13 -7 -24 14 -24 11 0 19 5 17 12 -5 14 -22 21 -31
12z"/>
<path d="M7592 4400 c0 -14 2 -19 5 -12 2 6 2 18 0 25 -3 6 -5 1 -5 -13z"/>
<path d="M7820 4405 c-11 -13 -8 -15 13 -15 19 0 25 4 21 15 -4 8 -10 15 -14
15 -4 0 -13 -7 -20 -15z"/>
<path d="M7872 4400 c0 -14 2 -19 5 -12 2 6 2 18 0 25 -3 6 -5 1 -5 -13z"/>
<path d="M8096 4405 c-19 -14 -19 -15 7 -15 17 0 27 5 27 15 0 19 -9 19 -34 0z"/>
<path d="M8146 4405 c-3 -8 -1 -15 4 -15 6 0 10 7 10 15 0 8 -2 15 -4 15 -2 0
-6 -7 -10 -15z"/>
<path d="M8387 4413 c-14 -13 -6 -23 19 -23 23 0 24 2 10 15 -16 17 -20 18
-29 8z"/>
<path d="M8442 4400 c0 -14 2 -19 5 -12 2 6 2 18 0 25 -3 6 -5 1 -5 -13z"/>
<path d="M7200 4315 l0 -45 765 0 765 0 0 45 0 45 -765 0 -765 0 0 -45z"/>
<path d="M9035 4202 c-134 -46 -204 -175 -155 -287 l13 -30 8 59 c9 64 18 81
72 140 l36 39 29 -31 c16 -16 47 -35 69 -41 40 -11 53 -25 53 -60 0 -14 -6
-17 -30 -13 -18 3 -30 0 -30 -7 0 -6 17 -11 38 -12 41 -1 91 -25 104 -52 4 -9
12 -25 17 -34 6 -12 18 -17 35 -15 37 4 63 -13 71 -47 8 -37 -8 -69 -41 -81
-21 -9 -24 -15 -24 -65 l0 -55 35 0 c19 0 35 4 35 8 0 4 28 6 63 5 88 -5 94 0
78 84 -7 37 -19 132 -26 210 -19 198 -46 246 -139 248 -24 0 -62 11 -93 28
-63 32 -141 36 -218 9z"/>
<path d="M8943 4003 c-23 -9 -14 -20 12 -15 14 2 22 8 19 13 -6 10 -12 10 -31
2z"/>
<path d="M2850 3940 c0 -5 11 -10 25 -10 14 0 25 5 25 10 0 6 -11 10 -25 10
-14 0 -25 -4 -25 -10z"/>
<path d="M8936 3921 c-3 -4 6 -6 19 -3 14 2 25 6 25 8 0 8 -39 4 -44 -5z"/>
<path d="M9103 3923 c9 -2 23 -2 30 0 6 3 -1 5 -18 5 -16 0 -22 -2 -12 -5z"/>
<path d="M9007 3848 c-12 -39 -14 -55 -5 -63 8 -7 9 -7 5 1 -4 6 1 33 9 58 9
26 14 49 12 51 -2 3 -12 -19 -21 -47z"/>
<path d="M9085 3880 c-4 -6 -3 -16 3 -22 6 -6 12 -6 17 2 4 6 3 16 -3 22 -6 6
-12 6 -17 -2z"/>
<path d="M3040 3870 c-12 -8 -9 -10 13 -10 16 0 26 4 22 10 -8 12 -16 12 -35
0z"/>
<path d="M8930 3870 c0 -5 7 -10 15 -10 8 0 15 5 15 10 0 6 -7 10 -15 10 -8 0
-15 -4 -15 -10z"/>
<path d="M2863 3863 c9 -2 23 -2 30 0 6 3 -1 5 -18 5 -16 0 -22 -2 -12 -5z"/>
<path d="M2860 3804 c0 -9 5 -14 12 -12 18 6 21 28 4 28 -9 0 -16 -7 -16 -16z"/>
<path d="M2932 3781 c-7 -21 -12 -45 -11 -52 0 -8 7 8 15 35 9 26 13 50 11 52
-2 2 -9 -13 -15 -35z"/>
<path d="M3022 3808 c6 -18 28 -21 28 -4 0 9 -7 16 -16 16 -9 0 -14 -5 -12
-12z"/>
<path d="M6933 3793 c9 -2 23 -2 30 0 6 3 -1 5 -18 5 -16 0 -22 -2 -12 -5z"/>
<path d="M7113 3793 c9 -2 23 -2 30 0 6 3 -1 5 -18 5 -16 0 -22 -2 -12 -5z"/>
<path d="M7975 3770 c10 -11 20 -20 23 -20 3 0 -3 9 -13 20 -10 11 -20 20 -23
20 -3 0 3 -9 13 -20z"/>
<path d="M9061 3739 c-22 -18 -22 -19 -3 -19 11 0 23 7 26 16 9 24 4 25 -23 3z"/>
<path d="M6940 3735 c0 -10 7 -15 18 -13 21 4 19 22 -2 26 -10 2 -16 -3 -16
-13z"/>
<path d="M7107 3744 c-9 -10 2 -24 19 -24 8 0 14 7 14 15 0 15 -21 21 -33 9z"/>
<path d="M7050 3735 c0 -5 5 -17 10 -25 5 -8 10 -10 10 -5 0 6 -5 17 -10 25
-5 8 -10 11 -10 5z"/>
<path d="M2991 3673 c-13 -13 -20 -23 -14 -23 15 0 46 26 42 36 -2 5 -15 -1
-28 -13z"/>
<path d="M7073 3667 c1 -15 5 -27 10 -27 10 0 9 22 -2 39 -7 10 -9 7 -8 -12z"/>
<path d="M8053 3590 c0 -25 2 -35 4 -22 2 12 2 32 0 45 -2 12 -4 2 -4 -23z"/>
<path d="M6980 3606 c0 -9 7 -19 15 -23 25 -9 27 2 5 22 -18 17 -20 17 -20 1z"/>
<path d="M9376 3298 c-9 -79 -6 -242 4 -200 8 35 14 252 7 252 -2 0 -7 -24
-11 -52z"/>
<path d="M3693 3230 c0 -25 2 -35 4 -22 2 12 2 32 0 45 -2 12 -4 2 -4 -23z"/>
<path d="M8821 3222 c-7 -20 -14 -82 -16 -137 l-4 -100 9 85 c5 47 13 107 20
134 13 59 8 70 -9 18z"/>
<path d="M6770 3209 c-80 -15 -186 -78 -253 -149 -108 -113 -118 -155 -127
-500 -7 -259 -9 -281 -35 -370 -33 -116 -39 -246 -12 -297 11 -20 13 -34 7
-38 -6 -3 -10 -22 -10 -41 0 -26 8 -44 29 -65 26 -25 37 -29 86 -29 46 0 56
-3 52 -15 -18 -44 -30 -163 -46 -445 -14 -252 -15 -318 -5 -330 7 -8 13 -19
13 -25 0 -5 15 -13 33 -16 18 -4 24 -7 13 -8 -25 -2 -61 -28 -51 -38 4 -4 10
-2 14 4 4 6 20 15 35 18 24 6 27 4 27 -16 0 -13 -3 -41 -7 -63 -6 -38 -6 -38
-44 -32 -29 5 -39 3 -39 -8 0 -14 60 -26 132 -26 50 0 47 24 -3 28 l-34 3 3
52 c2 29 7 56 11 60 5 4 22 -4 40 -18 17 -15 31 -22 31 -16 0 11 -10 21 -45
46 -19 14 -19 14 11 15 17 0 37 7 44 15 12 15 134 574 161 735 l13 80 82 0 82
0 6 -72 c3 -40 10 -194 16 -343 13 -348 18 -395 36 -395 8 0 14 -6 14 -14 0
-9 8 -12 25 -8 14 2 25 0 25 -7 0 -6 -11 -13 -25 -17 -14 -3 -25 -12 -25 -20
0 -10 8 -9 33 6 17 11 35 20 40 20 4 0 7 -27 7 -59 l0 -60 -42 -3 c-23 -2 -43
-9 -46 -15 -3 -10 19 -13 87 -13 74 0 91 3 91 15 0 11 -11 15 -40 15 l-40 0 0
60 c0 33 4 60 9 60 4 0 20 -9 35 -21 14 -11 26 -16 26 -10 0 6 -15 20 -32 31
l-33 20 36 0 c30 0 38 5 52 32 17 34 77 443 99 676 12 115 14 123 35 128 56
14 82 100 44 141 -32 34 -43 163 -51 583 -7 411 -9 431 -54 518 -9 17 -17 57
-18 89 l-1 58 -6 -48 -6 -47 -53 54 c-115 117 -284 168 -452 135z"/>
<path d="M3440 3074 c0 -10 62 -249 65 -252 2 -2 22 33 45 78 46 92 47 125 3
160 -24 18 -113 30 -113 14z"/>
<path d="M3731 2974 c0 -11 3 -14 6 -6 3 7 2 16 -1 19 -3 4 -6 -2 -5 -13z"/>
<path d="M2931 2920 c-1 -36 22 -323 39 -485 8 -79 8 -70 4 65 -6 199 -41 534
-43 420z"/>
<path d="M7737 2763 c-4 -3 -7 -26 -7 -50 0 -36 3 -43 20 -43 22 0 25 15 14
69 -6 30 -14 38 -27 24z"/>
<path d="M7870 2751 c0 -10 -3 -33 -6 -50 -6 -29 -4 -31 20 -31 26 0 27 2 21
38 -4 20 -8 43 -10 50 -7 19 -25 14 -25 -7z"/>
<path d="M8445 2720 c-7 -44 3 -67 28 -57 10 4 12 16 8 48 -8 56 -27 61 -36 9z"/>
<path d="M2356 2733 c-8 -26 -48 -554 -43 -560 10 -9 18 76 51 515 5 62 2 78
-8 45z"/>
<path d="M2496 2636 c-5 -51 -4 -168 2 -277 9 -167 12 -191 32 -219 12 -16 30
-35 42 -41 29 -16 103 -16 122 0 17 14 23 91 7 91 -6 0 -9 9 -8 20 2 32 -104
239 -126 246 -14 4 -16 8 -8 14 9 5 5 21 -14 61 -16 33 -29 81 -34 124 l-7 70
-8 -89z m132 -426 c12 0 22 -4 22 -9 0 -9 -80 5 -90 16 -3 3 6 3 20 0 14 -4
35 -7 48 -7z m52 -10 c0 -5 -4 -10 -10 -10 -5 0 -10 5 -10 10 0 6 5 10 10 10
6 0 10 -4 10 -10z"/>
<path d="M5335 2650 c3 -6 52 -10 111 -10 63 0 104 4 104 10 0 6 -44 10 -111
10 -71 0 -108 -4 -104 -10z"/>
<path d="M7866 2631 c-3 -5 3 -11 14 -14 21 -5 32 1 24 14 -7 12 -31 11 -38 0z"/>
<path d="M7931 2624 c0 -11 3 -14 6 -6 3 7 2 16 -1 19 -3 4 -6 -2 -5 -13z"/>
<path d="M7497 2573 c-2 -5 -5 -29 -6 -55 l-1 -48 45 0 45 0 2 -777 c2 -428 3
-831 3 -896 l0 -117 53 0 c28 0 51 3 51 8 -1 4 -1 406 0 895 l1 887 510 0 510
0 0 -66 0 -67 -37 7 c-21 3 -103 13 -183 21 -199 21 -268 6 -305 -65 -18 -34
-33 -294 -37 -645 l-3 -230 65 -7 c36 -3 96 -9 133 -13 l68 -7 -3 -56 -3 -57
-110 -3 c-60 -1 -114 -7 -119 -12 -5 -5 -9 -41 -8 -80 2 -68 1 -71 -25 -82
-16 -6 -66 -30 -113 -52 l-85 -41 65 -3 c36 -2 138 -1 228 3 l162 7 0 53 c0
30 4 56 9 59 5 4 22 -26 37 -64 15 -39 31 -73 35 -76 6 -3 129 38 212 71 11 5
17 2 17 -7 0 -8 -40 -34 -90 -58 -49 -24 -90 -48 -90 -52 0 -5 14 -35 30 -68
17 -33 30 -63 30 -68 0 -5 -26 -37 -58 -70 -31 -34 -56 -62 -54 -62 2 0 -6
-13 -17 -29 -12 -16 -21 -31 -21 -33 0 -3 61 27 136 65 l136 69 -4 -36 -4 -36
56 0 55 0 -3 56 c-3 41 0 60 12 73 15 16 15 21 1 54 -13 30 -15 102 -15 442 0
223 2 405 5 405 4 0 19 -7 36 -15 25 -14 78 -15 360 -13 l331 3 29 33 c65 73
11 182 -90 182 l-35 0 41 35 c47 40 71 86 89 170 28 127 8 211 -79 344 l-42
63 -247 -1 -248 -2 0 36 0 35 -729 0 c-402 0 -732 -3 -734 -7z m1333 -109 c0
-8 -5 -12 -10 -9 -6 4 -8 11 -5 16 9 14 15 11 15 -7z m-120 -961 c0 -102 -3
-184 -6 -181 -3 4 -23 70 -44 147 -21 78 -42 150 -45 161 -5 17 1 24 37 40 24
11 46 20 51 20 4 0 7 -84 7 -187z m-372 -380 c5 -17 -26 -29 -40 -15 -6 6 -7
15 -3 22 9 14 37 9 43 -7z"/>
<path d="M5048 2533 l-48 -4 0 -830 0 -829 48 0 47 -1 -27 -20 c-49 -37 -45
-117 8 -141 23 -11 24 -13 7 -19 -11 -5 -3 -7 24 -7 23 1 40 4 38 8 -2 4 7 13
21 20 25 14 44 62 36 92 -2 10 -16 29 -29 43 l-26 25 331 0 330 0 -29 -29
c-19 -19 -29 -40 -29 -59 0 -34 34 -82 58 -83 14 0 13 -2 -3 -9 -14 -6 -2 -8
40 -8 48 0 54 2 30 8 -16 4 -22 8 -13 9 25 2 58 49 58 83 0 19 -10 40 -29 59
l-29 29 34 0 34 0 0 830 0 830 -137 1 c-76 1 -264 2 -418 3 -154 1 -301 1
-327 -1z"/>
<path d="M1677 2440 c-4 -25 -14 -101 -22 -170 -8 -69 -19 -156 -25 -195 -9
-67 -12 -181 -5 -160 2 6 13 89 25 185 11 96 25 211 31 254 11 89 9 162 -4 86z"/>
<path d="M1821 2372 c-2 -48 29 -300 40 -329 5 -13 9 -44 9 -69 0 -37 4 -46
22 -53 56 -21 72 14 41 85 -10 22 -18 44 -18 49 0 6 -6 24 -12 40 -20 51 -46
146 -64 230 -11 54 -17 69 -18 47z"/>
<path d="M3185 2363 c-34 -9 -117 -70 -200 -148 -150 -141 -242 -184 -356
-166 -66 11 -95 24 -126 58 -19 19 -32 23 -87 23 -85 0 -96 -11 -96 -95 0 -52
-4 -69 -23 -90 -29 -35 -112 -55 -241 -59 -90 -3 -101 -6 -117 -27 -27 -35
-24 -85 6 -114 l24 -25 521 0 520 0 0 76 0 75 121 232 c67 128 125 236 130
242 5 5 9 13 9 17 0 9 -52 9 -85 1z"/>
<path d="M1322 2163 c-46 -210 -67 -381 -48 -411 9 -15 58 -16 74 0 18 18 15
46 -5 51 -17 4 -17 5 0 6 9 0 17 7 18 14 3 35 -4 193 -8 201 -3 5 -6 60 -6
122 0 63 -1 114 -2 114 -1 0 -11 -44 -23 -97z"/>
<path d="M942 1588 l-43 -123 21 -14 c27 -18 206 -96 241 -104 25 -6 27 -2 92
156 37 89 67 165 67 170 0 4 -33 7 -72 7 -68 0 -143 8 -228 25 l-35 6 -43
-123z"/>
<path d="M2438 1463 c7 -3 16 -2 19 1 4 3 -2 6 -13 5 -11 0 -14 -3 -6 -6z"/>
<path d="M910 1411 c0 -11 31 -24 39 -16 3 3 -1 10 -9 15 -19 12 -30 12 -30 1z"/>
<path d="M445 1354 c-18 -19 -19 -26 -3 -42 7 -7 167 -74 357 -149 191 -75
359 -146 375 -156 73 -51 74 -159 1 -227 l-27 -25 -411 -5 c-227 -3 -413 -7
-415 -8 -2 -1 -2 -14 0 -29 l3 -28 414 -3 c228 -1 417 1 420 5 3 5 19 15 34
23 16 8 41 30 56 50 53 68 65 145 32 215 -37 80 -63 95 -427 239 -187 74 -353
140 -367 145 -20 8 -30 7 -42 -5z"/>
<path d="M880 1347 c0 -8 7 -20 15 -27 12 -10 15 -10 15 3 0 8 -7 20 -15 27
-12 10 -15 10 -15 -3z"/>
<path d="M750 1325 c0 -14 5 -25 10 -25 6 0 10 11 10 25 0 14 -4 25 -10 25 -5
0 -10 -11 -10 -25z"/>
<path d="M812 1325 c2 -27 13 -33 21 -12 5 16 -3 37 -14 37 -5 0 -8 -11 -7
-25z"/>
<path d="M3127 683 c105 -2 281 -2 390 0 109 1 23 2 -192 2 -214 0 -304 -1
-198 -2z"/>
<path d="M3748 683 c12 -2 32 -2 45 0 12 2 2 4 -23 4 -25 0 -35 -2 -22 -4z"/>
<path d="M4132 683 c170 -2 446 -2 615 0 170 1 31 2 -307 2 -338 0 -477 -1
-308 -2z"/>
<path d="M5288 683 c72 -2 192 -2 265 0 72 1 13 3 -133 3 -146 0 -205 -2 -132
-3z"/>
<path d="M5708 683 c12 -2 32 -2 45 0 12 2 2 4 -23 4 -25 0 -35 -2 -22 -4z"/>
<path d="M6088 683 c100 -2 264 -2 365 0 100 1 18 2 -183 2 -201 0 -283 -1
-182 -2z"/>
<path d="M6873 683 c131 -2 343 -2 470 0 128 1 21 2 -238 2 -258 0 -363 -1
-232 -2z"/>
</g>
</svg>
